<?xml version="1.0" encoding="utf-8"?>
<!-- Generated by Mocodo 4.2.15 -->
<svg width="1089" height="279" viewBox="0 0 1089 279" xmlns="http://www.w3.org/2000/svg">
<rect x="0" y="0" width="1089" height="279" fill="#ffffff" stroke="none" stroke-width="0"/>

<!-- Association APPARTENIR -->
<g>
	<line x1="257" y1="85" x2="132" y2="85" stroke="#d6604d" stroke-width="2"/>
	<line x1="35" y1="85" x2="132" y2="85" stroke="#d6604d" stroke-width="2"/>
	<g>
		<path d="M157 60 a14 14 90 0 1 14 14 V85 h-78 V74 a14 14 90 0 1 14 -14" fill="#f4a582" stroke="#f4a582" stroke-width="0"/>
		<path d="M171 85 v11 a14 14 90 0 1 -14 14 H107 a14 14 90 0 1 -14 -14 V85 H78" fill="#fddbc7" stroke="#fddbc7" stroke-width="0"/>
		<rect x="93" y="60" width="78" height="50" fill="none" rx="14" stroke="#d6604d" stroke-width="2"/>
		<line x1="93" y1="85" x2="171" y2="85" stroke="#d6604d" stroke-width="1"/>
		<text x="100" y="77.75" fill="#000000" font-family="Verdana" font-size="12">Appartenir</text>
	</g>
	<text x="177" y="77" fill="#4d4d4d" font-family="Verdana" font-size="12">1,1</text>
	<text x="66" y="102" fill="#4d4d4d" font-family="Verdana" font-size="12">0,N</text>
</g>

<!-- Association DECLARER -->
<g>
	<line x1="510" y1="85" x2="381" y2="85" stroke="#d6604d" stroke-width="2"/>
	<line x1="257" y1="85" x2="381" y2="85" stroke="#d6604d" stroke-width="2"/>
	<g>
		<path d="M400 60 a14 14 90 0 1 14 14 V85 h-66 V74 a14 14 90 0 1 14 -14" fill="#f4a582" stroke="#f4a582" stroke-width="0"/>
		<path d="M414 85 v11 a14 14 90 0 1 -14 14 H362 a14 14 90 0 1 -14 -14 V85 H66" fill="#fddbc7" stroke="#fddbc7" stroke-width="0"/>
		<rect x="348" y="60" width="66" height="50" fill="none" rx="14" stroke="#d6604d" stroke-width="2"/>
		<line x1="348" y1="85" x2="414" y2="85" stroke="#d6604d" stroke-width="1"/>
		<text x="355" y="77.75" fill="#000000" font-family="Verdana" font-size="12">Déclarer</text>
	</g>
	<text x="431" y="102" fill="#4d4d4d" font-family="Verdana" font-size="12">1,1</text>
	<text x="316" y="102" fill="#4d4d4d" font-family="Verdana" font-size="12">0,N</text>
</g>

<!-- Association CONTENIR -->
<g>
	<line x1="758" y1="85" x2="631" y2="85" stroke="#d6604d" stroke-width="2"/>
	<line x1="510" y1="85" x2="631" y2="85" stroke="#d6604d" stroke-width="2"/>
	<g>
		<path d="M650 60 a14 14 90 0 1 14 14 V85 h-66 V74 a14 14 90 0 1 14 -14" fill="#f4a582" stroke="#f4a582" stroke-width="0"/>
		<path d="M664 85 v11 a14 14 90 0 1 -14 14 H612 a14 14 90 0 1 -14 -14 V85 H66" fill="#fddbc7" stroke="#fddbc7" stroke-width="0"/>
		<rect x="598" y="60" width="66" height="50" fill="none" rx="14" stroke="#d6604d" stroke-width="2"/>
		<line x1="598" y1="85" x2="664" y2="85" stroke="#d6604d" stroke-width="1"/>
		<text x="605" y="77.75" fill="#000000" font-family="Verdana" font-size="12">Contenir</text>
	</g>
	<text x="679" y="102" fill="#4d4d4d" font-family="Verdana" font-size="12">1,1</text>
	<text x="568" y="77" fill="#4d4d4d" font-family="Verdana" font-size="12">0,N</text>
</g>

<!-- Association PROVENIR -->
<g>
	<line x1="1022" y1="85" x2="899" y2="85" stroke="#d6604d" stroke-width="2"/>
	<line x1="758" y1="85" x2="899" y2="85" stroke="#d6604d" stroke-width="2"/>
	<g>
		<path d="M918 60 a14 14 90 0 1 14 14 V85 h-66 V74 a14 14 90 0 1 14 -14" fill="#f4a582" stroke="#f4a582" stroke-width="0"/>
		<path d="M932 85 v11 a14 14 90 0 1 -14 14 H880 a14 14 90 0 1 -14 -14 V85 H66" fill="#fddbc7" stroke="#fddbc7" stroke-width="0"/>
		<rect x="866" y="60" width="66" height="50" fill="none" rx="14" stroke="#d6604d" stroke-width="2"/>
		<line x1="866" y1="85" x2="932" y2="85" stroke="#d6604d" stroke-width="1"/>
		<text x="874" y="77.75" fill="#000000" font-family="Verdana" font-size="12">Provenir</text>
	</g>
	<text x="937" y="102" fill="#4d4d4d" font-family="Verdana" font-size="12">1,N</text>
	<text x="816" y="102" fill="#4d4d4d" font-family="Verdana" font-size="12">1,1</text>
</g>

<!-- Association AVOIR -->
<g>
	<line x1="257" y1="85" x2="132" y2="228" stroke="#d6604d" stroke-width="2"/>
	<line x1="35" y1="228" x2="132" y2="228" stroke="#d6604d" stroke-width="2"/>
	<g>
		<path d="M141 203 a14 14 90 0 1 14 14 V228 h-46 V217 a14 14 90 0 1 14 -14" fill="#f4a582" stroke="#f4a582" stroke-width="0"/>
		<path d="M155 228 v11 a14 14 90 0 1 -14 14 H123 a14 14 90 0 1 -14 -14 V228 H46" fill="#fddbc7" stroke="#fddbc7" stroke-width="0"/>
		<rect x="109" y="203" width="46" height="50" fill="none" rx="14" stroke="#d6604d" stroke-width="2"/>
		<line x1="109" y1="228" x2="155" y2="228" stroke="#d6604d" stroke-width="1"/>
		<text x="116" y="220.75" fill="#000000" font-family="Verdana" font-size="12">Avoir</text>
	</g>
	<text x="177" y="145.18" fill="#4d4d4d" font-family="Verdana" font-size="12">1,1</text>
	<text x="61" y="245" fill="#4d4d4d" font-family="Verdana" font-size="12">1,N</text>
</g>

<!-- Association OBTENIR -->
<g>
	<line x1="257" y1="85" x2="257" y2="228" stroke="#d6604d" stroke-width="2"/>
	<line x1="381" y1="228" x2="257" y2="228" stroke="#d6604d" stroke-width="2"/>
	<g>
		<path d="M273 203 a14 14 90 0 1 14 14 V228 h-60 V217 a14 14 90 0 1 14 -14" fill="#f4a582" stroke="#f4a582" stroke-width="0"/>
		<path d="M287 228 v11 a14 14 90 0 1 -14 14 H241 a14 14 90 0 1 -14 -14 V228 H60" fill="#fddbc7" stroke="#fddbc7" stroke-width="0"/>
		<rect x="227" y="203" width="60" height="50" fill="none" rx="14" stroke="#d6604d" stroke-width="2"/>
		<line x1="227" y1="228" x2="287" y2="228" stroke="#d6604d" stroke-width="1"/>
		<text x="234" y="220.75" fill="#000000" font-family="Verdana" font-size="12">Obtenir</text>
	</g>
	<text x="262" y="178" fill="#4d4d4d" font-family="Verdana" font-size="12">0,1</text>
	<text x="292" y="245" fill="#4d4d4d" font-family="Verdana" font-size="12">0,N</text>
</g>

<!-- Association POSSEDER -->
<g>
	<line x1="510" y1="85" x2="510" y2="228" stroke="#d6604d" stroke-width="2"/>
	<line x1="631" y1="228" x2="510" y2="228" stroke="#d6604d" stroke-width="2"/>
	<g>
		<path d="M531 203 a14 14 90 0 1 14 14 V228 h-70 V217 a14 14 90 0 1 14 -14" fill="#f4a582" stroke="#f4a582" stroke-width="0"/>
		<path d="M545 228 v11 a14 14 90 0 1 -14 14 H489 a14 14 90 0 1 -14 -14 V228 H70" fill="#fddbc7" stroke="#fddbc7" stroke-width="0"/>
		<rect x="475" y="203" width="70" height="50" fill="none" rx="14" stroke="#d6604d" stroke-width="2"/>
		<line x1="475" y1="228" x2="545" y2="228" stroke="#d6604d" stroke-width="1"/>
		<text x="483" y="220.75" fill="#000000" font-family="Verdana" font-size="12">Posséder</text>
	</g>
	<text x="484" y="153" fill="#4d4d4d" font-family="Verdana" font-size="12">1,1</text>
	<text x="550" y="245" fill="#4d4d4d" font-family="Verdana" font-size="12">0,N</text>
</g>

<!-- Association FRAISFORFAIT -->
<g>
	<line x1="899" y1="228" x2="758" y2="228" stroke="#d6604d" stroke-width="2"/>
	<line x1="510" y1="85" x2="758" y2="228" stroke="#d6604d" stroke-width="2"/>
	<g>
		<path d="M785 203 a14 14 90 0 1 14 14 V228 h-82 V217 a14 14 90 0 1 14 -14" fill="#f4a582" stroke="#f4a582" stroke-width="0"/>
		<path d="M799 228 v11 a14 14 90 0 1 -14 14 H731 a14 14 90 0 1 -14 -14 V228 H82" fill="#fddbc7" stroke="#fddbc7" stroke-width="0"/>
		<rect x="717" y="203" width="82" height="50" fill="none" rx="14" stroke="#d6604d" stroke-width="2"/>
		<line x1="717" y1="228" x2="799" y2="228" stroke="#d6604d" stroke-width="1"/>
		<text x="724" y="220.75" fill="#000000" font-family="Verdana" font-size="12">FraisForfait</text>
		<text x="724" y="245.8" fill="#000000" font-family="Verdana" font-size="12">quantite</text>
	</g>
	<text x="804" y="245" fill="#4d4d4d" font-family="Verdana" font-size="12">1,N</text>
	<text x="568" y="112.04" fill="#4d4d4d" font-family="Verdana" font-size="12">1,N</text>
</g>

<!-- Entity REGION -->
<g>
	<g>
		<rect x="9" y="51" width="52" height="25" fill="#bababa" stroke="none" stroke-width="0" opacity="1"/>
		<rect x="9" y="76" width="52" height="43" fill="#e0e0e0" stroke="none" stroke-width="0" opacity="1"/>
		<rect x="9" y="51" width="52" height="68" fill="none" stroke="#878787" stroke-width="2" opacity="1"/>
		<line x1="9" y1="76" x2="61" y2="76" stroke="#878787" stroke-width="1"/>
	</g>
	<text x="14" y="68.75" fill="#000000" font-family="Verdana" font-size="12">Region</text>
	<text x="14" y="93.8" fill="#000000" font-family="Verdana" font-size="12">id</text>
	<line x1="14" y1="96" x2="26" y2="96" stroke="#000000" stroke-width="1"/>
	<text x="14" y="110.8" fill="#000000" font-family="Verdana" font-size="12">nom</text>
</g>

<!-- Entity UTILISATEUR -->
<g>
	<g>
		<rect x="203" y="9" width="108" height="25" fill="#bababa" stroke="none" stroke-width="0" opacity="1"/>
		<rect x="203" y="34" width="108" height="127" fill="#e0e0e0" stroke="none" stroke-width="0" opacity="1"/>
		<rect x="203" y="9" width="108" height="152" fill="none" stroke="#878787" stroke-width="2" opacity="1"/>
		<line x1="203" y1="34" x2="311" y2="34" stroke="#878787" stroke-width="1"/>
	</g>
	<text x="226" y="26.75" fill="#000000" font-family="Verdana" font-size="12">Utilisateur</text>
	<text x="208" y="51.8" fill="#000000" font-family="Verdana" font-size="12">id</text>
	<line x1="208" y1="54" x2="220" y2="54" stroke="#000000" stroke-width="1"/>
	<text x="208" y="68.8" fill="#000000" font-family="Verdana" font-size="12">nom</text>
	<text x="208" y="85.8" fill="#000000" font-family="Verdana" font-size="12">prenom</text>
	<text x="208" y="102.8" fill="#000000" font-family="Verdana" font-size="12">login</text>
	<text x="208" y="119.8" fill="#000000" font-family="Verdana" font-size="12">mot_passe</text>
	<text x="208" y="136.8" fill="#000000" font-family="Verdana" font-size="12">date_embauche</text>
	<text x="208" y="153.8" fill="#000000" font-family="Verdana" font-size="12">date_depart</text>
</g>

<!-- Entity FICHEFRAIS -->
<g>
	<g>
		<rect x="457" y="34" width="106" height="25" fill="#bababa" stroke="none" stroke-width="0" opacity="1"/>
		<rect x="457" y="59" width="106" height="77" fill="#e0e0e0" stroke="none" stroke-width="0" opacity="1"/>
		<rect x="457" y="34" width="106" height="102" fill="none" stroke="#878787" stroke-width="2" opacity="1"/>
		<line x1="457" y1="59" x2="563" y2="59" stroke="#878787" stroke-width="1"/>
	</g>
	<text x="480" y="51.75" fill="#000000" font-family="Verdana" font-size="12">FicheFrais</text>
	<text x="462" y="76.8" fill="#000000" font-family="Verdana" font-size="12">mois</text>
	<line x1="462" y1="79" x2="491" y2="79" stroke="#000000" stroke-width="1"/>
	<text x="462" y="93.8" fill="#000000" font-family="Verdana" font-size="12">nb_justificatifs</text>
	<text x="462" y="110.8" fill="#000000" font-family="Verdana" font-size="12">montant_valide</text>
	<text x="462" y="127.8" fill="#000000" font-family="Verdana" font-size="12">date_modif</text>
</g>

<!-- Entity FRAISHORSFORFAIT -->
<g>
	<g>
		<rect x="705" y="43" width="106" height="25" fill="#bababa" stroke="none" stroke-width="0" opacity="1"/>
		<rect x="705" y="68" width="106" height="59" fill="#e0e0e0" stroke="none" stroke-width="0" opacity="1"/>
		<rect x="705" y="43" width="106" height="84" fill="none" stroke="#878787" stroke-width="2" opacity="1"/>
		<line x1="705" y1="68" x2="811" y2="68" stroke="#878787" stroke-width="1"/>
	</g>
	<text x="710" y="60.75" fill="#000000" font-family="Verdana" font-size="12">FraisHorsForfait</text>
	<text x="710" y="85.8" fill="#000000" font-family="Verdana" font-size="12">num</text>
	<line x1="710" y1="88" x2="738" y2="88" stroke="#000000" stroke-width="1"/>
	<text x="710" y="102.8" fill="#000000" font-family="Verdana" font-size="12">date</text>
	<text x="710" y="119.8" fill="#000000" font-family="Verdana" font-size="12">montant</text>
</g>

<!-- Entity LIBELLEHORSFORFAIT -->
<g>
	<g>
		<rect x="964" y="34" width="116" height="25" fill="#bababa" stroke="none" stroke-width="0" opacity="1"/>
		<rect x="964" y="59" width="116" height="77" fill="#e0e0e0" stroke="none" stroke-width="0" opacity="1"/>
		<rect x="964" y="34" width="116" height="102" fill="none" stroke="#878787" stroke-width="2" opacity="1"/>
		<line x1="964" y1="59" x2="1080" y2="59" stroke="#878787" stroke-width="1"/>
	</g>
	<text x="969" y="51.75" fill="#000000" font-family="Verdana" font-size="12">LibelleHorsForfait</text>
	<text x="969" y="76.8" fill="#000000" font-family="Verdana" font-size="12">id</text>
	<line x1="969" y1="79" x2="981" y2="79" stroke="#000000" stroke-width="1"/>
	<text x="969" y="93.8" fill="#000000" font-family="Verdana" font-size="12">libelle</text>
	<text x="969" y="110.8" fill="#000000" font-family="Verdana" font-size="12">minimum</text>
	<text x="969" y="127.8" fill="#000000" font-family="Verdana" font-size="12">maximum</text>
</g>

<!-- Entity PROFIL -->
<g>
	<g>
		<rect x="14" y="194" width="42" height="25" fill="#bababa" stroke="none" stroke-width="0" opacity="1"/>
		<rect x="14" y="219" width="42" height="43" fill="#e0e0e0" stroke="none" stroke-width="0" opacity="1"/>
		<rect x="14" y="194" width="42" height="68" fill="none" stroke="#878787" stroke-width="2" opacity="1"/>
		<line x1="14" y1="219" x2="56" y2="219" stroke="#878787" stroke-width="1"/>
	</g>
	<text x="20" y="211.75" fill="#000000" font-family="Verdana" font-size="12">Profil</text>
	<text x="19" y="236.8" fill="#000000" font-family="Verdana" font-size="12">id</text>
	<line x1="19" y1="239" x2="31" y2="239" stroke="#000000" stroke-width="1"/>
	<text x="19" y="253.8" fill="#000000" font-family="Verdana" font-size="12">nom</text>
</g>

<!-- Entity ECHELONHORSFORFAIT -->
<g>
	<g>
		<rect x="319" y="186" width="124" height="25" fill="#bababa" stroke="none" stroke-width="0" opacity="1"/>
		<rect x="319" y="211" width="124" height="59" fill="#e0e0e0" stroke="none" stroke-width="0" opacity="1"/>
		<rect x="319" y="186" width="124" height="84" fill="none" stroke="#878787" stroke-width="2" opacity="1"/>
		<line x1="319" y1="211" x2="443" y2="211" stroke="#878787" stroke-width="1"/>
	</g>
	<text x="324" y="203.75" fill="#000000" font-family="Verdana" font-size="12">EchelonHorsForfait</text>
	<text x="324" y="228.8" fill="#000000" font-family="Verdana" font-size="12">id</text>
	<line x1="324" y1="231" x2="336" y2="231" stroke="#000000" stroke-width="1"/>
	<text x="324" y="245.8" fill="#000000" font-family="Verdana" font-size="12">echelon</text>
	<text x="324" y="262.8" fill="#000000" font-family="Verdana" font-size="12">plafond</text>
</g>

<!-- Entity STATUTFICHEFRAIS -->
<g>
	<g>
		<rect x="577" y="194" width="108" height="25" fill="#bababa" stroke="none" stroke-width="0" opacity="1"/>
		<rect x="577" y="219" width="108" height="43" fill="#e0e0e0" stroke="none" stroke-width="0" opacity="1"/>
		<rect x="577" y="194" width="108" height="68" fill="none" stroke="#878787" stroke-width="2" opacity="1"/>
		<line x1="577" y1="219" x2="685" y2="219" stroke="#878787" stroke-width="1"/>
	</g>
	<text x="582" y="211.75" fill="#000000" font-family="Verdana" font-size="12">StatutFicheFrais</text>
	<text x="582" y="236.8" fill="#000000" font-family="Verdana" font-size="12">code</text>
	<line x1="582" y1="239" x2="611" y2="239" stroke="#000000" stroke-width="1"/>
	<text x="582" y="253.8" fill="#000000" font-family="Verdana" font-size="12">libelle</text>
</g>

<!-- Entity CATEGORIEFRAISFORFAIT -->
<g>
	<g>
		<rect x="831" y="186" width="136" height="25" fill="#bababa" stroke="none" stroke-width="0" opacity="1"/>
		<rect x="831" y="211" width="136" height="59" fill="#e0e0e0" stroke="none" stroke-width="0" opacity="1"/>
		<rect x="831" y="186" width="136" height="84" fill="none" stroke="#878787" stroke-width="2" opacity="1"/>
		<line x1="831" y1="211" x2="967" y2="211" stroke="#878787" stroke-width="1"/>
	</g>
	<text x="836" y="203.75" fill="#000000" font-family="Verdana" font-size="12">CategorieFraisForfait</text>
	<text x="836" y="228.8" fill="#000000" font-family="Verdana" font-size="12">code</text>
	<line x1="836" y1="231" x2="865" y2="231" stroke="#000000" stroke-width="1"/>
	<text x="836" y="245.8" fill="#000000" font-family="Verdana" font-size="12">libelle</text>
	<text x="836" y="262.8" fill="#000000" font-family="Verdana" font-size="12">prix_unitaire</text>
</g>
</svg>