<?xml version="1.0" encoding="utf-8"?>
<!-- Generated by Mocodo 4.2.12 -->
<svg width="905" height="556" viewBox="0 0 905 556" xmlns="http://www.w3.org/2000/svg">
<rect x="0" y="0" width="905" height="556" fill="#f7f7f7" stroke="none" stroke-width="0"/>

<!-- Association AVOIR -->
<g>
	<line x1="390" y1="219" x2="390" y2="127" stroke="#4393c3" stroke-width="2"/>
	<line x1="390" y1="43" x2="390" y2="127" stroke="#4393c3" stroke-width="2"/>
	<g>
		<path d="M403 102 a14 14 90 0 1 14 14 V127 h-54 V116 a14 14 90 0 1 14 -14" fill="#92c5de" stroke="#92c5de" stroke-width="0"/>
		<path d="M417 127 v11 a14 14 90 0 1 -14 14 H377 a14 14 90 0 1 -14 -14 V127 H54" fill="#d1e5f0" stroke="#d1e5f0" stroke-width="0"/>
		<rect x="363" y="102" width="54" height="50" fill="none" rx="14" stroke="#4393c3" stroke-width="2"/>
		<line x1="363" y1="127" x2="417" y2="127" stroke="#4393c3" stroke-width="1"/>
		<text x="370" y="119.75" fill="#000000" font-family="Verdana" font-size="12">AVOIR</text>
	</g>
	<text x="395" y="169" fill="#b2182b" font-family="Verdana" font-size="12">1,1</text>
	<text x="395" y="94" fill="#b2182b" font-family="Verdana" font-size="12">1,N</text>
</g>

<!-- Association DEPENDRE -->
<g>
	<line x1="390" y1="219" x2="264" y2="219" stroke="#4393c3" stroke-width="2"/>
	<line x1="264" y1="311" x2="264" y2="219" stroke="#4393c3" stroke-width="2"/>
	<g>
		<path d="M291 194 a14 14 90 0 1 14 14 V219 h-82 V208 a14 14 90 0 1 14 -14" fill="#92c5de" stroke="#92c5de" stroke-width="0"/>
		<path d="M305 219 v11 a14 14 90 0 1 -14 14 H237 a14 14 90 0 1 -14 -14 V219 H82" fill="#d1e5f0" stroke="#d1e5f0" stroke-width="0"/>
		<rect x="223" y="194" width="82" height="50" fill="none" rx="14" stroke="#4393c3" stroke-width="2"/>
		<line x1="223" y1="219" x2="305" y2="219" stroke="#4393c3" stroke-width="1"/>
		<text x="231" y="211.75" fill="#000000" font-family="Verdana" font-size="12">DEPENDRE</text>
	</g>
	<text x="311" y="236" fill="#b2182b" font-family="Verdana" font-size="12">1,1</text>
	<text x="269" y="261" fill="#b2182b" font-family="Verdana" font-size="12">0,N</text>
</g>

<!-- Association SELECTIONNER -->
<g>
	<line x1="34" y1="311" x2="146" y2="311" stroke="#4393c3" stroke-width="2"/>
	<line x1="264" y1="311" x2="146" y2="311" stroke="#4393c3" stroke-width="2"/>
	<g>
		<path d="M187 286 a14 14 90 0 1 14 14 V311 h-110 V300 a14 14 90 0 1 14 -14" fill="#92c5de" stroke="#92c5de" stroke-width="0"/>
		<path d="M201 311 v11 a14 14 90 0 1 -14 14 H105 a14 14 90 0 1 -14 -14 V311 H110" fill="#d1e5f0" stroke="#d1e5f0" stroke-width="0"/>
		<rect x="91" y="286" width="110" height="50" fill="none" rx="14" stroke="#4393c3" stroke-width="2"/>
		<line x1="91" y1="311" x2="201" y2="311" stroke="#4393c3" stroke-width="1"/>
		<text x="99" y="303.75" fill="#000000" font-family="Verdana" font-size="12">SELECTIONNER</text>
		<text x="98" y="328.8" fill="#000000" font-family="Verdana" font-size="12">plafond</text>
	</g>
	<text x="64" y="328" fill="#b2182b" font-family="Verdana" font-size="12">0,N</text>
	<text x="206" y="328" fill="#b2182b" font-family="Verdana" font-size="12">0,N</text>
</g>

<!-- Association CONCERNER -->
<g>
	<line x1="390" y1="412" x2="390" y2="311" stroke="#4393c3" stroke-width="2"/>
	<line x1="390" y1="219" x2="390" y2="311" stroke="#4393c3" stroke-width="2"/>
	<g>
		<path d="M422 286 a14 14 90 0 1 14 14 V311 h-92 V300 a14 14 90 0 1 14 -14" fill="#92c5de" stroke="#92c5de" stroke-width="0"/>
		<path d="M436 311 v11 a14 14 90 0 1 -14 14 H358 a14 14 90 0 1 -14 -14 V311 H92" fill="#d1e5f0" stroke="#d1e5f0" stroke-width="0"/>
		<rect x="344" y="286" width="92" height="50" fill="none" rx="14" stroke="#4393c3" stroke-width="2"/>
		<line x1="344" y1="311" x2="436" y2="311" stroke="#4393c3" stroke-width="1"/>
		<text x="352" y="303.75" fill="#000000" font-family="Verdana" font-size="12">CONCERNER</text>
	</g>
	<text x="395" y="353" fill="#b2182b" font-family="Verdana" font-size="12">1,1</text>
	<text x="395" y="278" fill="#b2182b" font-family="Verdana" font-size="12">1,N</text>
</g>

<!-- Association POSSEDER -->
<g>
	<line x1="591" y1="311" x2="711" y2="311" stroke="#4393c3" stroke-width="2"/>
	<line x1="711" y1="412" x2="711" y2="311" stroke="#4393c3" stroke-width="2"/>
	<g>
		<path d="M738 286 a14 14 90 0 1 14 14 V311 h-82 V300 a14 14 90 0 1 14 -14" fill="#92c5de" stroke="#92c5de" stroke-width="0"/>
		<path d="M752 311 v11 a14 14 90 0 1 -14 14 H684 a14 14 90 0 1 -14 -14 V311 H82" fill="#d1e5f0" stroke="#d1e5f0" stroke-width="0"/>
		<rect x="670" y="286" width="82" height="50" fill="none" rx="14" stroke="#4393c3" stroke-width="2"/>
		<line x1="670" y1="311" x2="752" y2="311" stroke="#4393c3" stroke-width="1"/>
		<text x="678" y="303.75" fill="#000000" font-family="Verdana" font-size="12">POSSEDER</text>
	</g>
	<text x="643" y="328" fill="#b2182b" font-family="Verdana" font-size="12">1,1</text>
	<text x="716" y="370" fill="#b2182b" font-family="Verdana" font-size="12">0,N</text>
</g>

<!-- Association AGIR -->
<g>
	<line x1="390" y1="412" x2="264" y2="412" stroke="#4393c3" stroke-width="2"/>
	<line x1="264" y1="311" x2="264" y2="412" stroke="#4393c3" stroke-width="2"/>
	<g>
		<path d="M273 387 a14 14 90 0 1 14 14 V412 h-46 V401 a14 14 90 0 1 14 -14" fill="#92c5de" stroke="#92c5de" stroke-width="0"/>
		<path d="M287 412 v11 a14 14 90 0 1 -14 14 H255 a14 14 90 0 1 -14 -14 V412 H46" fill="#d1e5f0" stroke="#d1e5f0" stroke-width="0"/>
		<rect x="241" y="387" width="46" height="50" fill="none" rx="14" stroke="#4393c3" stroke-width="2"/>
		<line x1="241" y1="412" x2="287" y2="412" stroke="#4393c3" stroke-width="1"/>
		<text x="248" y="404.75" fill="#000000" font-family="Verdana" font-size="12">AGIR</text>
	</g>
	<text x="312" y="429" fill="#b2182b" font-family="Verdana" font-size="12">1,1</text>
	<text x="269" y="370" fill="#b2182b" font-family="Verdana" font-size="12">0,N</text>
</g>

<!-- Association ENTREPRENDRE -->
<g>
	<line x1="390" y1="412" x2="390" y2="513" stroke="#4393c3" stroke-width="2"/>
	<line x1="512" y1="513" x2="390" y2="513" stroke="#4393c3" stroke-width="2"/>
	<g>
		<path d="M432 488 a14 14 90 0 1 14 14 V513 h-112 V502 a14 14 90 0 1 14 -14" fill="#92c5de" stroke="#92c5de" stroke-width="0"/>
		<path d="M446 513 v11 a14 14 90 0 1 -14 14 H348 a14 14 90 0 1 -14 -14 V513 H112" fill="#d1e5f0" stroke="#d1e5f0" stroke-width="0"/>
		<rect x="334" y="488" width="112" height="50" fill="none" rx="14" stroke="#4393c3" stroke-width="2"/>
		<line x1="334" y1="513" x2="446" y2="513" stroke="#4393c3" stroke-width="1"/>
		<text x="341" y="505.75" fill="#000000" font-family="Verdana" font-size="12">ENTREPRENDRE</text>
	</g>
	<text x="395" y="480" fill="#b2182b" font-family="Verdana" font-size="12">1,1</text>
	<text x="451" y="530" fill="#b2182b" font-family="Verdana" font-size="12">1,N</text>
</g>

<!-- Entity MISSION -->
<g>
	<g>
		<rect x="357" y="9" width="66" height="25" fill="#f4a582" stroke="none" stroke-width="0" opacity="1"/>
		<rect x="357" y="34" width="66" height="43" fill="#fddbc7" stroke="none" stroke-width="0" opacity="1"/>
		<rect x="357" y="9" width="66" height="68" fill="none" stroke="#d6604d" stroke-width="2" opacity="1"/>
		<line x1="357" y1="34" x2="423" y2="34" stroke="#d6604d" stroke-width="1"/>
	</g>
	<text x="362" y="26.75" fill="#000000" font-family="Verdana" font-size="12">MISSION</text>
	<text x="362" y="51.8" fill="#000000" font-family="Verdana" font-size="12">id</text>
	<line x1="362" y1="54" x2="374" y2="54" stroke="#000000" stroke-width="1"/>
	<text x="362" y="68.8" fill="#000000" font-family="Verdana" font-size="12">libelle</text>
</g>

<!-- Entity ASSOCIATIONS -->
<g>
	<g>
		<rect x="337" y="177" width="106" height="25" fill="#f4a582" stroke="none" stroke-width="0" opacity="1"/>
		<rect x="337" y="202" width="106" height="59" fill="#fddbc7" stroke="none" stroke-width="0" opacity="1"/>
		<rect x="337" y="177" width="106" height="84" fill="none" stroke="#d6604d" stroke-width="2" opacity="1"/>
		<line x1="337" y1="202" x2="443" y2="202" stroke="#d6604d" stroke-width="1"/>
	</g>
	<text x="342" y="194.75" fill="#000000" font-family="Verdana" font-size="12">ASSOCIATIONS</text>
	<text x="342" y="219.8" fill="#000000" font-family="Verdana" font-size="12">id</text>
	<line x1="342" y1="222" x2="354" y2="222" stroke="#000000" stroke-width="1"/>
	<text x="342" y="236.8" fill="#000000" font-family="Verdana" font-size="12">nom</text>
	<text x="342" y="253.8" fill="#000000" font-family="Verdana" font-size="12">responsable</text>
</g>

<!-- Entity DATE -->
<g>
	<g>
		<rect x="9" y="286" width="50" height="25" fill="#f4a582" stroke="none" stroke-width="0" opacity="1"/>
		<rect x="9" y="311" width="50" height="25" fill="#fddbc7" stroke="none" stroke-width="0" opacity="1"/>
		<rect x="9" y="286" width="50" height="50" fill="none" stroke="#d6604d" stroke-width="2" opacity="1"/>
		<line x1="9" y1="311" x2="59" y2="311" stroke="#d6604d" stroke-width="1"/>
	</g>
	<text x="18" y="303.75" fill="#000000" font-family="Verdana" font-size="12">DATE</text>
	<text x="14" y="328.8" fill="#000000" font-family="Verdana" font-size="12">Annee</text>
	<line x1="14" y1="331" x2="53" y2="331" stroke="#000000" stroke-width="1"/>
</g>

<!-- Entity PAYS -->
<g>
	<g>
		<rect x="233" y="269" width="62" height="25" fill="#f4a582" stroke="none" stroke-width="0" opacity="1"/>
		<rect x="233" y="294" width="62" height="59" fill="#fddbc7" stroke="none" stroke-width="0" opacity="1"/>
		<rect x="233" y="269" width="62" height="84" fill="none" stroke="#d6604d" stroke-width="2" opacity="1"/>
		<line x1="233" y1="294" x2="295" y2="294" stroke="#d6604d" stroke-width="1"/>
	</g>
	<text x="248" y="286.75" fill="#000000" font-family="Verdana" font-size="12">PAYS</text>
	<text x="238" y="311.8" fill="#000000" font-family="Verdana" font-size="12">id</text>
	<line x1="238" y1="314" x2="250" y2="314" stroke="#000000" stroke-width="1"/>
	<text x="238" y="328.8" fill="#000000" font-family="Verdana" font-size="12">nom</text>
	<text x="238" y="345.8" fill="#000000" font-family="Verdana" font-size="12">codeISO</text>
</g>

<!-- Entity UTILISATEUR -->
<g>
	<g>
		<rect x="544" y="269" width="94" height="25" fill="#f4a582" stroke="none" stroke-width="0" opacity="1"/>
		<rect x="544" y="294" width="94" height="59" fill="#fddbc7" stroke="none" stroke-width="0" opacity="1"/>
		<rect x="544" y="269" width="94" height="84" fill="none" stroke="#d6604d" stroke-width="2" opacity="1"/>
		<line x1="544" y1="294" x2="638" y2="294" stroke="#d6604d" stroke-width="1"/>
	</g>
	<text x="550" y="286.75" fill="#000000" font-family="Verdana" font-size="12">UTILISATEUR</text>
	<text x="549" y="311.8" fill="#000000" font-family="Verdana" font-size="12">id</text>
	<line x1="549" y1="314" x2="561" y2="314" stroke="#000000" stroke-width="1"/>
	<text x="549" y="328.8" fill="#000000" font-family="Verdana" font-size="12">login</text>
	<text x="549" y="345.8" fill="#000000" font-family="Verdana" font-size="12">password</text>
</g>

<!-- Entity PARTENARIATS -->
<g>
	<g>
		<rect x="338" y="361" width="104" height="25" fill="#f4a582" stroke="none" stroke-width="0" opacity="1"/>
		<rect x="338" y="386" width="104" height="77" fill="#fddbc7" stroke="none" stroke-width="0" opacity="1"/>
		<rect x="338" y="361" width="104" height="102" fill="none" stroke="#d6604d" stroke-width="2" opacity="1"/>
		<line x1="338" y1="386" x2="442" y2="386" stroke="#d6604d" stroke-width="1"/>
	</g>
	<text x="343" y="378.75" fill="#000000" font-family="Verdana" font-size="12">PARTENARIATS</text>
	<text x="343" y="403.8" fill="#000000" font-family="Verdana" font-size="12">id</text>
	<line x1="343" y1="406" x2="355" y2="406" stroke="#000000" stroke-width="1"/>
	<text x="343" y="420.8" fill="#000000" font-family="Verdana" font-size="12">date</text>
	<text x="343" y="437.8" fill="#000000" font-family="Verdana" font-size="12">budgetPrevu</text>
	<text x="343" y="454.8" fill="#000000" font-family="Verdana" font-size="12">budgetReel</text>
</g>

<!-- Entity ROLE -->
<g>
	<g>
		<rect x="688" y="378" width="46" height="25" fill="#f4a582" stroke="none" stroke-width="0" opacity="1"/>
		<rect x="688" y="403" width="46" height="43" fill="#fddbc7" stroke="none" stroke-width="0" opacity="1"/>
		<rect x="688" y="378" width="46" height="68" fill="none" stroke="#d6604d" stroke-width="2" opacity="1"/>
		<line x1="688" y1="403" x2="734" y2="403" stroke="#d6604d" stroke-width="1"/>
	</g>
	<text x="695" y="395.75" fill="#000000" font-family="Verdana" font-size="12">ROLE</text>
	<text x="693" y="420.8" fill="#000000" font-family="Verdana" font-size="12">id</text>
	<line x1="693" y1="423" x2="705" y2="423" stroke="#000000" stroke-width="1"/>
	<text x="693" y="437.8" fill="#000000" font-family="Verdana" font-size="12">libelle</text>
</g>

<!-- Entity LOGINTERVENTION -->
<g>
	<g>
		<rect x="766" y="361" width="130" height="25" fill="#f4a582" stroke="none" stroke-width="0" opacity="1"/>
		<rect x="766" y="386" width="130" height="77" fill="#fddbc7" stroke="none" stroke-width="0" opacity="1"/>
		<rect x="766" y="361" width="130" height="102" fill="none" stroke="#d6604d" stroke-width="2" opacity="1"/>
		<line x1="766" y1="386" x2="896" y2="386" stroke="#d6604d" stroke-width="1"/>
	</g>
	<text x="771" y="378.75" fill="#000000" font-family="Verdana" font-size="12">LOGINTERVENTION</text>
	<text x="771" y="403.8" fill="#000000" font-family="Verdana" font-size="12">id</text>
	<line x1="771" y1="406" x2="783" y2="406" stroke="#000000" stroke-width="1"/>
	<text x="771" y="420.8" fill="#000000" font-family="Verdana" font-size="12">nomTable</text>
	<text x="771" y="437.8" fill="#000000" font-family="Verdana" font-size="12">operation</text>
	<text x="771" y="454.8" fill="#000000" font-family="Verdana" font-size="12">reference</text>
</g>

<!-- Entity ACTIONS -->
<g>
	<g>
		<rect x="478" y="479" width="68" height="25" fill="#f4a582" stroke="none" stroke-width="0" opacity="1"/>
		<rect x="478" y="504" width="68" height="43" fill="#fddbc7" stroke="none" stroke-width="0" opacity="1"/>
		<rect x="478" y="479" width="68" height="68" fill="none" stroke="#d6604d" stroke-width="2" opacity="1"/>
		<line x1="478" y1="504" x2="546" y2="504" stroke="#d6604d" stroke-width="1"/>
	</g>
	<text x="484" y="496.75" fill="#000000" font-family="Verdana" font-size="12">ACTIONS</text>
	<text x="483" y="521.8" fill="#000000" font-family="Verdana" font-size="12">id</text>
	<line x1="483" y1="524" x2="495" y2="524" stroke="#000000" stroke-width="1"/>
	<text x="483" y="538.8" fill="#000000" font-family="Verdana" font-size="12">libelle</text>
</g>
</svg>